{
  "accessors": [
    {
      "bufferView": 2,
      "componentType": 5126,
      "count": 6942,
      "max": [
        448.07000732421875,
        372.0960388183594,
        379.41717529296875
      ],
      "min": [
        -370.49737548828125,
        -1.719212532043457,
        -367.09710693359375
      ],
      "type": "VEC3"
    },
    {
      "bufferView": 2,
      "byteOffset": 83304,
      "componentType": 5126,
      "count": 6942,
      "max": [
        0.999997079372406,
        1.0,
        0.9999295473098755
      ],
      "min": [
        -0.9999951720237732,
        -1.0,
        -1.0
      ],
      "type": "VEC3"
    },
    {
      "bufferView": 3,
      "componentType": 5126,
      "count": 6942,
      "max": [
        0.9994359016418457,
        0.9999915957450867,
        0.9970270395278931,
        1.0
      ],
      "min": [
        -0.9994171261787415,
        -0.9999229311943054,
        -0.99857097864151,
        1.0
      ],
      "type": "VEC4"
    },
    {
      "bufferView": 1,
      "componentType": 5126,
      "count": 6942,
      "max": [
        1.0000001192092896,
        0.9999896287918091
      ],
      "min": [
        0.0,
        0.0
      ],
      "type": "VEC2"
    },
    {
      "bufferView": 0,
      "componentType": 5125,
      "count": 15372,
      "type": "SCALAR"
    }
  ],
  "asset": {
    "extras": {
      "author": "Da-Luna (https://sketchfab.com/da-luna)",
      "license": "CC-BY-4.0 (http://creativecommons.org/licenses/by/4.0/)",
      "source": "https://sketchfab.com/3d-models/iglo-896984dda0d347bab20538cfea7d2d5f",
      "title": "Iglo"
    },
    "generator": "Sketchfab-14.48.0",
    "version": "2.0"
  },
  "bufferViews": [
    {
      "buffer": 0,
      "byteLength": 61488,
      "name": "floatBufferViews",
      "target": 34963
    },
    {
      "buffer": 0,
      "byteLength": 55536,
      "byteOffset": 61488,
      "byteStride": 8,
      "name": "floatBufferViews",
      "target": 34962
    },
    {
      "buffer": 0,
      "byteLength": 166608,
      "byteOffset": 117024,
      "byteStride": 12,
      "name": "floatBufferViews",
      "target": 34962
    },
    {
      "buffer": 0,
      "byteLength": 111072,
      "byteOffset": 283632,
      "byteStride": 16,
      "name": "floatBufferViews",
      "target": 34962
    }
  ],
  "buffers": [
    {
      "byteLength": 394704,
      "uri": "scene.bin"
    }
  ],
  "images": [
    {
      "uri": "textures/Igloo_Single.001_baseColor.png"
    },
    {
      "uri": "textures/Igloo_Single.001_metallicRoughness.png"
    },
    {
      "uri": "textures/Igloo_Single.001_normal.png"
    }
  ],
  "materials": [
    {
      "doubleSided": true,
      "name": "Igloo_Single.001",
      "normalTexture": {
        "index": 2
      },
      "pbrMetallicRoughness": {
        "baseColorTexture": {
          "index": 0
        },
        "metallicRoughnessTexture": {
          "index": 1
        },
        "roughnessFactor": 0.325
      }
    }
  ],
  "meshes": [
    {
      "name": "Igloo_Single_Igloo_Single.001_0",
      "primitives": [
        {
          "attributes": {
            "NORMAL": 1,
            "POSITION": 0,
            "TANGENT": 2,
            "TEXCOORD_0": 3
          },
          "indices": 4,
          "material": 0,
          "mode": 4
        }
      ]
    }
  ],
  "nodes": [
    {
      "children": [
        1
      ],
      "matrix": [
        1.0,
        0.0,
        0.0,
        0.0,
        0.0,
        2.220446049250313e-16,
        -1.0,
        0.0,
        0.0,
        1.0,
        2.220446049250313e-16,
        0.0,
        0.0,
        0.0,
        0.0,
        1.0
      ],
      "name": "Sketchfab_model"
    },
    {
      "children": [
        2
      ],
      "matrix": [
        0.009999999776482582,
        0.0,
        0.0,
        0.0,
        0.0,
        0.0,
        0.009999999776482582,
        0.0,
        0.0,
        -0.009999999776482582,
        0.0,
        0.0,
        0.0,
        0.0,
        0.0,
        1.0
      ],
      "name": "00_OBJECT_Iglo.fbx"
    },
    {
      "children": [
        3
      ],
      "name": "RootNode"
    },
    {
      "children": [
        4
      ],
      "name": "Igloo_Single"
    },
    {
      "mesh": 0,
      "name": "Igloo_Single_Igloo_Single.001_0"
    }
  ],
  "samplers": [
    {
      "magFilter": 9729,
      "minFilter": 9987,
      "wrapS": 10497,
      "wrapT": 10497
    }
  ],
  "scene": 0,
  "scenes": [
    {
      "name": "Sketchfab_Scene",
      "nodes": [
        0
      ]
    }
  ],
  "textures": [
    {
      "sampler": 0,
      "source": 0
    },
    {
      "sampler": 0,
      "source": 1
    },
    {
      "sampler": 0,
      "source": 2
    }
  ]
}
