{
  "accessors": [
    {
      "bufferView": 2,
      "componentType": 5126,
      "count": 504,
      "max": [
        -0.14467239379882813,
        3.719536066055298,
        3.8676095008850098
      ],
      "min": [
        -1.4773216247558594,
        -3.4553680419921875,
        -0.0041151344776153564
      ],
      "type": "VEC3"
    },
    {
      "bufferView": 2,
      "byteOffset": 6048,
      "componentType": 5126,
      "count": 504,
      "max": [
        1.0,
        1.0,
        1.0
      ],
      "min": [
        -1.0,
        -1.0,
        -1.0
      ],
      "type": "VEC3"
    },
    {
      "bufferView": 1,
      "componentType": 5126,
      "count": 504,
      "max": [
        20.0,
        24.0
      ],
      "min": [
        -0.9500016570091248,
        -1.1920928955078125e-06
      ],
      "type": "VEC2"
    },
    {
      "bufferView": 0,
      "componentType": 5125,
      "count": 918,
      "type": "SCALAR"
    },
    {
      "bufferView": 2,
      "byteOffset": 12096,
      "componentType": 5126,
      "count": 22,
      "max": [
        -0.18243789672851563,
        3.704071283340454,
        3.8574063777923584
      ],
      "min": [
        -1.4160575866699219,
        -3.4308319091796875,
        0.05095311999320984
      ],
      "type": "VEC3"
    },
    {
      "bufferView": 2,
      "byteOffset": 12360,
      "componentType": 5126,
      "count": 22,
      "max": [
        0.9948329329490662,
        1.0,
        0.0
      ],
      "min": [
        0.0,
        -1.0,
        -0.977613627910614
      ],
      "type": "VEC3"
    },
    {
      "bufferView": 1,
      "byteOffset": 4032,
      "componentType": 5126,
      "count": 22,
      "max": [
        14.974465370178223,
        14.990617752075195
      ],
      "min": [
        0.010297000408172607,
        0.001875758171081543
      ],
      "type": "VEC2"
    },
    {
      "bufferView": 0,
      "byteOffset": 3672,
      "componentType": 5125,
      "count": 30,
      "type": "SCALAR"
    },
    {
      "bufferView": 2,
      "byteOffset": 12624,
      "componentType": 5126,
      "count": 374,
      "max": [
        -0.14467239379882813,
        3.719536066055298,
        3.8723127841949463
      ],
      "min": [
        -0.23186111450195313,
        -3.4553680419921875,
        0.0
      ],
      "type": "VEC3"
    },
    {
      "bufferView": 2,
      "byteOffset": 17112,
      "componentType": 5126,
      "count": 374,
      "max": [
        1.0,
        1.0,
        1.0
      ],
      "min": [
        -1.0,
        -1.0,
        -1.0
      ],
      "type": "VEC3"
    },
    {
      "bufferView": 1,
      "byteOffset": 4208,
      "componentType": 5126,
      "count": 374,
      "max": [
        20.0,
        20.0
      ],
      "min": [
        -1.1920928955078125e-06,
        -1.1920928955078125e-06
      ],
      "type": "VEC2"
    },
    {
      "bufferView": 0,
      "byteOffset": 3792,
      "componentType": 5125,
      "count": 570,
      "type": "SCALAR"
    }
  ],
  "asset": {
    "extras": {
      "author": "Neo_minigan (https://sketchfab.com/neominigan)",
      "license": "CC-BY-4.0 (http://creativecommons.org/licenses/by/4.0/)",
      "source": "https://sketchfab.com/3d-models/football-gate-48ddabcf5d57425fb9f34061460fa5b6",
      "title": "Football Gate"
    },
    "generator": "Sketchfab-12.67.0",
    "version": "2.0"
  },
  "bufferViews": [
    {
      "buffer": 0,
      "byteLength": 6072,
      "name": "floatBufferViews",
      "target": 34963
    },
    {
      "buffer": 0,
      "byteLength": 7200,
      "byteOffset": 6072,
      "byteStride": 8,
      "name": "floatBufferViews",
      "target": 34962
    },
    {
      "buffer": 0,
      "byteLength": 21600,
      "byteOffset": 13272,
      "byteStride": 12,
      "name": "floatBufferViews",
      "target": 34962
    }
  ],
  "buffers": [
    {
      "byteLength": 34872,
      "uri": "scene.bin"
    }
  ],
  "images": [
    {
      "uri": "textures/white_metal_metallicRoughness.png"
    },
    {
      "uri": "textures/setka_baseColor.png"
    }
  ],
  "materials": [
    {
      "doubleSided": true,
      "name": "white_metal",
      "pbrMetallicRoughness": {
        "baseColorFactor": [
          0.5904156237,
          0.5904156237,
          0.5904156237,
          1.0
        ],
        "metallicRoughnessTexture": {
          "index": 0
        },
        "roughnessFactor": 0.5
      }
    },
    {
      "alphaCutoff": 0.01,
      "alphaMode": "MASK",
      "doubleSided": true,
      "name": "setka",
      "pbrMetallicRoughness": {
        "baseColorTexture": {
          "index": 1
        },
        "metallicFactor": 0.0,
        "roughnessFactor": 0.6
      }
    },
    {
      "doubleSided": true,
      "name": "black_metal",
      "pbrMetallicRoughness": {
        "baseColorFactor": [
          0.0125182254,
          0.0125182254,
          0.0125182254,
          1.0
        ],
        "metallicRoughnessTexture": {
          "index": 0
        },
        "roughnessFactor": 0.5
      }
    }
  ],
  "meshes": [
    {
      "name": "Object002_white metal_0",
      "primitives": [
        {
          "attributes": {
            "NORMAL": 1,
            "POSITION": 0,
            "TEXCOORD_0": 2
          },
          "indices": 3,
          "material": 0,
          "mode": 4
        }
      ]
    },
    {
      "name": "Object002_setka_0",
      "primitives": [
        {
          "attributes": {
            "NORMAL": 5,
            "POSITION": 4,
            "TEXCOORD_0": 6
          },
          "indices": 7,
          "material": 1,
          "mode": 4
        }
      ]
    },
    {
      "name": "Object002_black metal_0",
      "primitives": [
        {
          "attributes": {
            "NORMAL": 9,
            "POSITION": 8,
            "TEXCOORD_0": 10
          },
          "indices": 11,
          "material": 2,
          "mode": 4
        }
      ]
    }
  ],
  "nodes": [
    {
      "children": [
        1
      ],
      "matrix": [
        1.0,
        0.0,
        0.0,
        0.0,
        0.0,
        2.220446049250313e-16,
        -1.0,
        0.0,
        0.0,
        1.0,
        2.220446049250313e-16,
        0.0,
        0.0,
        0.0,
        0.0,
        1.0
      ],
      "name": "Sketchfab_model"
    },
    {
      "children": [
        2
      ],
      "matrix": [
        1.0,
        0.0,
        0.0,
        0.0,
        0.0,
        0.0,
        1.0,
        0.0,
        0.0,
        -1.0,
        0.0,
        0.0,
        0.0,
        0.0,
        0.0,
        1.0
      ],
      "name": "95b3ea7793c54ab480b732f95c58e7f8.fbx"
    },
    {
      "children": [
        3
      ],
      "name": "RootNode"
    },
    {
      "children": [
        4,
        5,
        6
      ],
      "matrix": [
        1.0,
        0.0,
        0.0,
        0.0,
        0.0,
        2.220446049250313e-16,
        -1.0,
        0.0,
        0.0,
        1.0,
        2.220446049250313e-16,
        0.0,
        0.0,
        0.0,
        0.0,
        1.0
      ],
      "name": "Object002"
    },
    {
      "mesh": 0,
      "name": "Object002_white metal_0"
    },
    {
      "mesh": 1,
      "name": "Object002_setka_0"
    },
    {
      "mesh": 2,
      "name": "Object002_black metal_0"
    }
  ],
  "samplers": [
    {
      "magFilter": 9729,
      "minFilter": 9987,
      "wrapS": 10497,
      "wrapT": 10497
    }
  ],
  "scene": 0,
  "scenes": [
    {
      "name": "Sketchfab_Scene",
      "nodes": [
        0
      ]
    }
  ],
  "textures": [
    {
      "sampler": 0,
      "source": 0
    },
    {
      "sampler": 0,
      "source": 1
    }
  ]
}
