{
  "accessors": [
    {
      "bufferView": 2,
      "componentType": 5126,
      "count": 65532,
      "max": [
        1000.0,
        667.908935546875,
        353.4658203125
      ],
      "min": [
        22.3707275390625,
        0.0,
        30.381683349609375
      ],
      "type": "VEC3"
    },
    {
      "bufferView": 2,
      "byteOffset": 786384,
      "componentType": 5126,
      "count": 65532,
      "max": [
        0.9992594718933105,
        0.9883237481117249,
        0.9999992251396179
      ],
      "min": [
        -0.9819453358650208,
        -0.986710250377655,
        -0.9489871263504028
      ],
      "type": "VEC3"
    },
    {
      "bufferView": 1,
      "componentType": 5126,
      "count": 65532,
      "max": [
        1.0,
        0.9998980164527893
      ],
      "min": [
        9.899999713525176e-05,
        0.0
      ],
      "type": "VEC2"
    },
    {
      "bufferView": 0,
      "componentType": 5125,
      "count": 308904,
      "type": "SCALAR"
    },
    {
      "bufferView": 2,
      "byteOffset": 1572768,
      "componentType": 5126,
      "count": 65532,
      "max": [
        997.8829956054688,
        696.3271484375,
        350.65234375
      ],
      "min": [
        7.736541748046875,
        4.14874267578125,
        0.951751708984375
      ],
      "type": "VEC3"
    },
    {
      "bufferView": 2,
      "byteOffset": 2359152,
      "componentType": 5126,
      "count": 65532,
      "max": [
        0.9985306262969971,
        0.999821126461029,
        0.9999982118606567
      ],
      "min": [
        -0.9748461246490479,
        -0.8377372026443481,
        -0.46100887656211853
      ],
      "type": "VEC3"
    },
    {
      "bufferView": 1,
      "byteOffset": 524256,
      "componentType": 5126,
      "count": 65532,
      "max": [
        0.9979230165481567,
        0.9995049834251404
      ],
      "min": [
        0.000514000013936311,
        0.006246000062674284
      ],
      "type": "VEC2"
    },
    {
      "bufferView": 0,
      "byteOffset": 1235616,
      "componentType": 5125,
      "count": 294801,
      "type": "SCALAR"
    },
    {
      "bufferView": 2,
      "byteOffset": 3145536,
      "componentType": 5126,
      "count": 65532,
      "max": [
        999.4854736328125,
        697.4566650390625,
        353.81719970703125
      ],
      "min": [
        10.142547607421875,
        0.0,
        0.0
      ],
      "type": "VEC3"
    },
    {
      "bufferView": 2,
      "byteOffset": 3931920,
      "componentType": 5126,
      "count": 65532,
      "max": [
        0.9997314810752869,
        0.9998947381973267,
        0.9999986290931702
      ],
      "min": [
        -0.9724725484848022,
        -0.7959983348846436,
        -0.3930588364601135
      ],
      "type": "VEC3"
    },
    {
      "bufferView": 1,
      "byteOffset": 1048512,
      "componentType": 5126,
      "count": 65532,
      "max": [
        0.9992830157279968,
        0.9930670261383057
      ],
      "min": [
        0.00022699999681208283,
        0.003194000106304884
      ],
      "type": "VEC2"
    },
    {
      "bufferView": 0,
      "byteOffset": 2414820,
      "componentType": 5125,
      "count": 285546,
      "type": "SCALAR"
    },
    {
      "bufferView": 2,
      "byteOffset": 4718304,
      "componentType": 5126,
      "count": 65532,
      "max": [
        999.6488037109375,
        696.2811279296875,
        353.79388427734375
      ],
      "min": [
        6.8592529296875,
        4.667877197265625,
        1.677490234375
      ],
      "type": "VEC3"
    },
    {
      "bufferView": 2,
      "byteOffset": 5504688,
      "componentType": 5126,
      "count": 65532,
      "max": [
        0.9972196221351624,
        0.9998947381973267,
        0.9999974966049194
      ],
      "min": [
        -0.9606890082359314,
        -0.8237209916114807,
        -0.4540461301803589
      ],
      "type": "VEC3"
    },
    {
      "bufferView": 1,
      "byteOffset": 1572768,
      "componentType": 5126,
      "count": 65532,
      "max": [
        1.0,
        0.9997990131378174
      ],
      "min": [
        0.00023200000578071922,
        0.0
      ],
      "type": "VEC2"
    },
    {
      "bufferView": 0,
      "byteOffset": 3557004,
      "componentType": 5125,
      "count": 257589,
      "type": "SCALAR"
    },
    {
      "bufferView": 2,
      "byteOffset": 6291072,
      "componentType": 5126,
      "count": 65231,
      "max": [
        998.8748168945313,
        695.4517822265625,
        351.67303466796875
      ],
      "min": [
        0.0,
        1.536102294921875,
        1.370269775390625
      ],
      "type": "VEC3"
    },
    {
      "bufferView": 2,
      "byteOffset": 7073844,
      "componentType": 5126,
      "count": 65231,
      "max": [
        0.9975528717041016,
        0.9990350008010864,
        0.9999992251396179
      ],
      "min": [
        -0.9983910918235779,
        -0.9987532496452332,
        -0.8818328976631165
      ],
      "type": "VEC3"
    },
    {
      "bufferView": 1,
      "byteOffset": 2097024,
      "componentType": 5126,
      "count": 65231,
      "max": [
        1.0,
        1.0
      ],
      "min": [
        0.0,
        0.0
      ],
      "type": "VEC2"
    },
    {
      "bufferView": 0,
      "byteOffset": 4587360,
      "componentType": 5125,
      "count": 198840,
      "type": "SCALAR"
    }
  ],
  "asset": {
    "extras": {
      "author": "Scott Nebeker (https://sketchfab.com/scottneb)",
      "license": "CC-BY-4.0 (http://creativecommons.org/licenses/by/4.0/)",
      "source": "https://sketchfab.com/3d-models/mount-timpanogos-early-2017-af5dfd9ef50d4b68bbfcc1ed284985ae",
      "title": "Mount Timpanogos Early 2017"
    },
    "generator": "Sketchfab-12.66.0",
    "version": "2.0"
  },
  "bufferViews": [
    {
      "buffer": 0,
      "byteLength": 5382720,
      "name": "floatBufferViews",
      "target": 34963
    },
    {
      "buffer": 0,
      "byteLength": 2618872,
      "byteOffset": 5382720,
      "byteStride": 8,
      "name": "floatBufferViews",
      "target": 34962
    },
    {
      "buffer": 0,
      "byteLength": 7856616,
      "byteOffset": 8001592,
      "byteStride": 12,
      "name": "floatBufferViews",
      "target": 34962
    }
  ],
  "buffers": [
    {
      "byteLength": 15858208,
      "uri": "scene.bin"
    }
  ],
  "extensionsUsed": [
    "KHR_materials_unlit"
  ],
  "images": [
    {
      "uri": "textures/material_0_baseColor.jpeg"
    }
  ],
  "materials": [
    {
      "doubleSided": true,
      "extensions": {
        "KHR_materials_unlit": {}
      },
      "name": "material_0",
      "pbrMetallicRoughness": {
        "baseColorTexture": {
          "index": 0
        },
        "metallicFactor": 0.0
      }
    }
  ],
  "meshes": [
    {
      "name": "Object_0",
      "primitives": [
        {
          "attributes": {
            "NORMAL": 1,
            "POSITION": 0,
            "TEXCOORD_0": 2
          },
          "indices": 3,
          "material": 0,
          "mode": 4
        }
      ]
    },
    {
      "name": "Object_1",
      "primitives": [
        {
          "attributes": {
            "NORMAL": 5,
            "POSITION": 4,
            "TEXCOORD_0": 6
          },
          "indices": 7,
          "material": 0,
          "mode": 4
        }
      ]
    },
    {
      "name": "Object_2",
      "primitives": [
        {
          "attributes": {
            "NORMAL": 9,
            "POSITION": 8,
            "TEXCOORD_0": 10
          },
          "indices": 11,
          "material": 0,
          "mode": 4
        }
      ]
    },
    {
      "name": "Object_3",
      "primitives": [
        {
          "attributes": {
            "NORMAL": 13,
            "POSITION": 12,
            "TEXCOORD_0": 14
          },
          "indices": 15,
          "material": 0,
          "mode": 4
        }
      ]
    },
    {
      "name": "Object_4",
      "primitives": [
        {
          "attributes": {
            "NORMAL": 17,
            "POSITION": 16,
            "TEXCOORD_0": 18
          },
          "indices": 19,
          "material": 0,
          "mode": 4
        }
      ]
    }
  ],
  "nodes": [
    {
      "children": [
        1
      ],
      "matrix": [
        0.005312744062393904,
        0.0,
        0.0,
        0.0,
        0.0,
        0.002315739493565173,
        -0.004781485046035732,
        0.0,
        0.0,
        0.004781485046035732,
        0.002315739493565173,
        0.0,
        0.0,
        15.548268318176266,
        13.719089508056644,
        1.0
      ],
      "name": "Sketchfab_model"
    },
    {
      "children": [
        2,
        3,
        4,
        5,
        6
      ],
      "matrix": [
        1.0,
        0.0,
        0.0,
        0.0,
        0.0,
        1.0,
        0.0,
        0.0,
        0.0,
        0.0,
        1.0,
        0.0,
        -500.84271240234375,
        -389.475341796875,
        -199.0353546142578,
        1.0
      ],
      "name": "sketchfabTemp.obj.cleaner.gles"
    },
    {
      "mesh": 0,
      "name": "Object_2"
    },
    {
      "mesh": 1,
      "name": "Object_3"
    },
    {
      "mesh": 2,
      "name": "Object_4"
    },
    {
      "mesh": 3,
      "name": "Object_5"
    },
    {
      "mesh": 4,
      "name": "Object_6"
    }
  ],
  "samplers": [
    {
      "magFilter": 9729,
      "minFilter": 9987,
      "wrapS": 10497,
      "wrapT": 10497
    }
  ],
  "scene": 0,
  "scenes": [
    {
      "name": "Sketchfab_Scene",
      "nodes": [
        0
      ]
    }
  ],
  "textures": [
    {
      "sampler": 0,
      "source": 0
    }
  ]
}
