{
  "accessors": [
    {
      "bufferView": 2,
      "componentType": 5126,
      "count": 65532,
      "max": [
        4.106288909912109,
        -2.723381996154785,
        10.215084075927734
      ],
      "min": [
        -4.190578937530518,
        -8.96078109741211,
        -10.328300476074219
      ],
      "type": "VEC3"
    },
    {
      "bufferView": 2,
      "byteOffset": 786384,
      "componentType": 5126,
      "count": 65532,
      "max": [
        0.9998833537101746,
        0.9999902248382568,
        0.9997199773788452
      ],
      "min": [
        -0.9999939799308777,
        -0.5111749768257141,
        -0.9994357824325562
      ],
      "type": "VEC3"
    },
    {
      "bufferView": 1,
      "componentType": 5126,
      "count": 65532,
      "max": [
        0.9913849830627441,
        0.9918419718742371
      ],
      "min": [
        0.008088000118732452,
        0.008453999646008015
      ],
      "type": "VEC2"
    },
    {
      "bufferView": 0,
      "componentType": 5125,
      "count": 363222,
      "type": "SCALAR"
    },
    {
      "bufferView": 2,
      "byteOffset": 1572768,
      "componentType": 5126,
      "count": 28093,
      "max": [
        3.435831069946289,
        -2.80527400970459,
        9.087890625
      ],
      "min": [
        -3.6454880237579346,
        -8.562007904052734,
        -10.328300476074219
      ],
      "type": "VEC3"
    },
    {
      "bufferView": 2,
      "byteOffset": 1909884,
      "componentType": 5126,
      "count": 28093,
      "max": [
        0.9999931454658508,
        0.9999970197677612,
        0.9999361038208008
      ],
      "min": [
        -0.9979196190834045,
        -0.16952404379844666,
        -0.9880646467208862
      ],
      "type": "VEC3"
    },
    {
      "bufferView": 1,
      "byteOffset": 524256,
      "componentType": 5126,
      "count": 28093,
      "max": [
        0.9402989745140076,
        0.991907000541687
      ],
      "min": [
        0.11892600357532501,
        0.13718099892139435
      ],
      "type": "VEC2"
    },
    {
      "bufferView": 0,
      "byteOffset": 1452888,
      "componentType": 5125,
      "count": 147447,
      "type": "SCALAR"
    },
    {
      "bufferView": 2,
      "byteOffset": 2247000,
      "componentType": 5126,
      "count": 56769,
      "max": [
        4.385202884674072,
        -2.706109046936035,
        9.778199195861816
      ],
      "min": [
        -4.854179859161377,
        -8.146533966064453,
        -9.499262809753418
      ],
      "type": "VEC3"
    },
    {
      "bufferView": 2,
      "byteOffset": 2928228,
      "componentType": 5126,
      "count": 56769,
      "max": [
        0.9993072152137756,
        0.9999616146087646,
        0.999984622001648
      ],
      "min": [
        -0.999533474445343,
        -0.6913548111915588,
        -0.9913161396980286
      ],
      "type": "VEC3"
    },
    {
      "bufferView": 1,
      "byteOffset": 749000,
      "componentType": 5126,
      "count": 56769,
      "max": [
        0.9916939735412598,
        0.9919419884681702
      ],
      "min": [
        0.00808900035917759,
        0.008348999544978142
      ],
      "type": "VEC2"
    },
    {
      "bufferView": 0,
      "byteOffset": 2042676,
      "componentType": 5125,
      "count": 305670,
      "type": "SCALAR"
    },
    {
      "bufferView": 2,
      "byteOffset": 3609456,
      "componentType": 5126,
      "count": 28776,
      "max": [
        4.385202884674072,
        -2.813523054122925,
        10.215084075927734
      ],
      "min": [
        -4.855299949645996,
        -8.980358123779297,
        -10.307106971740723
      ],
      "type": "VEC3"
    },
    {
      "bufferView": 2,
      "byteOffset": 3954768,
      "componentType": 5126,
      "count": 28776,
      "max": [
        0.9999931454658508,
        0.9998940229415894,
        0.9999634623527527
      ],
      "min": [
        -0.9999939799308777,
        -0.9961376190185547,
        -0.9995267391204834
      ],
      "type": "VEC3"
    },
    {
      "bufferView": 1,
      "byteOffset": 1203152,
      "componentType": 5126,
      "count": 28776,
      "max": [
        0.9916700124740601,
        0.9919419884681702
      ],
      "min": [
        0.008062999695539474,
        0.3072670102119446
      ],
      "type": "VEC2"
    },
    {
      "bufferView": 0,
      "byteOffset": 3265356,
      "componentType": 5125,
      "count": 100323,
      "type": "SCALAR"
    }
  ],
  "asset": {
    "extras": {
      "author": "Randy Quaiscer (https://sketchfab.com/RandyQuaiscer)",
      "license": "CC-BY-SA-4.0 (http://creativecommons.org/licenses/by-sa/4.0/)",
      "source": "https://sketchfab.com/3d-models/3d-scanned-snowy-rock-formation-e3485c920c644930a3a13287b117ba83",
      "title": "3D Scanned Snowy Rock Formation"
    },
    "generator": "Sketchfab-12.66.0",
    "version": "2.0"
  },
  "bufferViews": [
    {
      "buffer": 0,
      "byteLength": 3666648,
      "name": "floatBufferViews",
      "target": 34963
    },
    {
      "buffer": 0,
      "byteLength": 1433360,
      "byteOffset": 3666648,
      "byteStride": 8,
      "name": "floatBufferViews",
      "target": 34962
    },
    {
      "buffer": 0,
      "byteLength": 4300080,
      "byteOffset": 5100008,
      "byteStride": 12,
      "name": "floatBufferViews",
      "target": 34962
    }
  ],
  "buffers": [
    {
      "byteLength": 9400088,
      "uri": "scene.bin"
    }
  ],
  "images": [
    {
      "uri": "textures/material0000_baseColor.jpeg"
    },
    {
      "uri": "textures/material0001_baseColor.jpeg"
    },
    {
      "uri": "textures/material0002_baseColor.jpeg"
    }
  ],
  "materials": [
    {
      "doubleSided": true,
      "name": "material0000",
      "pbrMetallicRoughness": {
        "baseColorTexture": {
          "index": 0
        },
        "metallicFactor": 0.0
      }
    },
    {
      "doubleSided": true,
      "name": "material0001",
      "pbrMetallicRoughness": {
        "baseColorTexture": {
          "index": 1
        },
        "metallicFactor": 0.0
      }
    },
    {
      "doubleSided": true,
      "name": "material0002",
      "pbrMetallicRoughness": {
        "baseColorTexture": {
          "index": 2
        },
        "metallicFactor": 0.0
      }
    }
  ],
  "meshes": [
    {
      "name": "Object_0",
      "primitives": [
        {
          "attributes": {
            "NORMAL": 1,
            "POSITION": 0,
            "TEXCOORD_0": 2
          },
          "indices": 3,
          "material": 0,
          "mode": 4
        }
      ]
    },
    {
      "name": "Object_1",
      "primitives": [
        {
          "attributes": {
            "NORMAL": 5,
            "POSITION": 4,
            "TEXCOORD_0": 6
          },
          "indices": 7,
          "material": 0,
          "mode": 4
        }
      ]
    },
    {
      "name": "Object_2",
      "primitives": [
        {
          "attributes": {
            "NORMAL": 9,
            "POSITION": 8,
            "TEXCOORD_0": 10
          },
          "indices": 11,
          "material": 1,
          "mode": 4
        }
      ]
    },
    {
      "name": "Object_3",
      "primitives": [
        {
          "attributes": {
            "NORMAL": 13,
            "POSITION": 12,
            "TEXCOORD_0": 14
          },
          "indices": 15,
          "material": 2,
          "mode": 4
        }
      ]
    }
  ],
  "nodes": [
    {
      "children": [
        1
      ],
      "matrix": [
        -0.020203597843647003,
        0.9295817017555238,
        -0.3680620789527891,
        0.0,
        -0.11620695888996124,
        0.3634587228298185,
        0.9243341684341432,
        0.0,
        0.9930195212364197,
        0.06144625321030615,
        0.1006806865334511,
        0.0,
        -0.8625995516777039,
        2.28914666175842,
        11.163522720336914,
        1.0
      ],
      "name": "Sketchfab_model"
    },
    {
      "children": [
        2,
        3,
        4,
        5
      ],
      "name": "model.obj.cleaner.materialmerger.gles"
    },
    {
      "mesh": 0,
      "name": "Object_2"
    },
    {
      "mesh": 1,
      "name": "Object_3"
    },
    {
      "mesh": 2,
      "name": "Object_4"
    },
    {
      "mesh": 3,
      "name": "Object_5"
    }
  ],
  "samplers": [
    {
      "magFilter": 9729,
      "minFilter": 9987,
      "wrapS": 10497,
      "wrapT": 10497
    }
  ],
  "scene": 0,
  "scenes": [
    {
      "name": "Sketchfab_Scene",
      "nodes": [
        0
      ]
    }
  ],
  "textures": [
    {
      "sampler": 0,
      "source": 0
    },
    {
      "sampler": 0,
      "source": 1
    },
    {
      "sampler": 0,
      "source": 2
    }
  ]
}
