{
  "accessors": [
    {
      "bufferView": 2,
      "componentType": 5126,
      "count": 65532,
      "max": [
        4.563925743103027,
        1.3963212966918945,
        4.361433982849121
      ],
      "min": [
        -4.907871723175049,
        -0.034157752990722656,
        -4.329796314239502
      ],
      "type": "VEC3"
    },
    {
      "bufferView": 2,
      "byteOffset": 786384,
      "componentType": 5126,
      "count": 65532,
      "max": [
        0.9976370334625244,
        1.0,
        0.9999808073043823
      ],
      "min": [
        -0.9999902248382568,
        -0.9999999403953552,
        -0.9984475374221802
      ],
      "type": "VEC3"
    },
    {
      "bufferView": 1,
      "componentType": 5126,
      "count": 65532,
      "max": [
        0.9992578029632568,
        0.9993714094161987
      ],
      "min": [
        0.0006157816387712955,
        0.0007832050323486328
      ],
      "type": "VEC2"
    },
    {
      "bufferView": 1,
      "byteOffset": 524256,
      "componentType": 5126,
      "count": 65532,
      "max": [
        0.9992578029632568,
        0.9993714094161987
      ],
      "min": [
        0.0006157816387712955,
        0.0007832050323486328
      ],
      "type": "VEC2"
    },
    {
      "bufferView": 1,
      "byteOffset": 1048512,
      "componentType": 5126,
      "count": 65532,
      "max": [
        0.9992578029632568,
        0.9993714094161987
      ],
      "min": [
        0.0006157816387712955,
        0.0007832050323486328
      ],
      "type": "VEC2"
    },
    {
      "bufferView": 1,
      "byteOffset": 1572768,
      "componentType": 5126,
      "count": 65532,
      "max": [
        0.9992578029632568,
        0.9993714094161987
      ],
      "min": [
        0.0006157816387712955,
        0.0007832050323486328
      ],
      "type": "VEC2"
    },
    {
      "bufferView": 1,
      "byteOffset": 2097024,
      "componentType": 5126,
      "count": 65532,
      "max": [
        0.9992578029632568,
        0.9993714094161987
      ],
      "min": [
        0.0006157816387712955,
        0.0007832050323486328
      ],
      "type": "VEC2"
    },
    {
      "bufferView": 1,
      "byteOffset": 2621280,
      "componentType": 5126,
      "count": 65532,
      "max": [
        0.9992578029632568,
        0.9993714094161987
      ],
      "min": [
        0.0006157816387712955,
        0.0007832050323486328
      ],
      "type": "VEC2"
    },
    {
      "bufferView": 1,
      "byteOffset": 3145536,
      "componentType": 5126,
      "count": 65532,
      "max": [
        0.9992578029632568,
        0.9993714094161987
      ],
      "min": [
        0.0006157816387712955,
        0.0007832050323486328
      ],
      "type": "VEC2"
    },
    {
      "bufferView": 1,
      "byteOffset": 3669792,
      "componentType": 5126,
      "count": 65532,
      "max": [
        0.9992578029632568,
        0.9993714094161987
      ],
      "min": [
        0.0006157816387712955,
        0.0007832050323486328
      ],
      "type": "VEC2"
    },
    {
      "bufferView": 1,
      "byteOffset": 4194048,
      "componentType": 5126,
      "count": 65532,
      "max": [
        0.9992578029632568,
        0.9993714094161987
      ],
      "min": [
        0.0006157816387712955,
        0.0007832050323486328
      ],
      "type": "VEC2"
    },
    {
      "bufferView": 1,
      "byteOffset": 4718304,
      "componentType": 5126,
      "count": 65532,
      "max": [
        0.9992578029632568,
        0.9993714094161987
      ],
      "min": [
        0.0006157816387712955,
        0.0007832050323486328
      ],
      "type": "VEC2"
    },
    {
      "bufferView": 0,
      "componentType": 5125,
      "count": 319395,
      "type": "SCALAR"
    },
    {
      "bufferView": 2,
      "byteOffset": 1572768,
      "componentType": 5126,
      "count": 2137,
      "max": [
        4.185820579528809,
        1.253593921661377,
        3.43857479095459
      ],
      "min": [
        -3.3968944549560547,
        -0.004197597503662109,
        -3.605292797088623
      ],
      "type": "VEC3"
    },
    {
      "bufferView": 2,
      "byteOffset": 1598412,
      "componentType": 5126,
      "count": 2137,
      "max": [
        0.7644846439361572,
        1.0,
        0.45703718066215515
      ],
      "min": [
        -0.8952935934066772,
        -0.997999906539917,
        -0.5045831799507141
      ],
      "type": "VEC3"
    },
    {
      "bufferView": 1,
      "byteOffset": 5242560,
      "componentType": 5126,
      "count": 2137,
      "max": [
        0.9989445209503174,
        0.8646755218505859
      ],
      "min": [
        0.1882222443819046,
        0.29472947120666504
      ],
      "type": "VEC2"
    },
    {
      "bufferView": 1,
      "byteOffset": 5259656,
      "componentType": 5126,
      "count": 2137,
      "max": [
        0.9989445209503174,
        0.8646755218505859
      ],
      "min": [
        0.1882222443819046,
        0.29472947120666504
      ],
      "type": "VEC2"
    },
    {
      "bufferView": 1,
      "byteOffset": 5276752,
      "componentType": 5126,
      "count": 2137,
      "max": [
        0.9989445209503174,
        0.8646755218505859
      ],
      "min": [
        0.1882222443819046,
        0.29472947120666504
      ],
      "type": "VEC2"
    },
    {
      "bufferView": 1,
      "byteOffset": 5293848,
      "componentType": 5126,
      "count": 2137,
      "max": [
        0.9989445209503174,
        0.8646755218505859
      ],
      "min": [
        0.1882222443819046,
        0.29472947120666504
      ],
      "type": "VEC2"
    },
    {
      "bufferView": 1,
      "byteOffset": 5310944,
      "componentType": 5126,
      "count": 2137,
      "max": [
        0.9989445209503174,
        0.8646755218505859
      ],
      "min": [
        0.1882222443819046,
        0.29472947120666504
      ],
      "type": "VEC2"
    },
    {
      "bufferView": 1,
      "byteOffset": 5328040,
      "componentType": 5126,
      "count": 2137,
      "max": [
        0.9989445209503174,
        0.8646755218505859
      ],
      "min": [
        0.1882222443819046,
        0.29472947120666504
      ],
      "type": "VEC2"
    },
    {
      "bufferView": 1,
      "byteOffset": 5345136,
      "componentType": 5126,
      "count": 2137,
      "max": [
        0.9989445209503174,
        0.8646755218505859
      ],
      "min": [
        0.1882222443819046,
        0.29472947120666504
      ],
      "type": "VEC2"
    },
    {
      "bufferView": 1,
      "byteOffset": 5362232,
      "componentType": 5126,
      "count": 2137,
      "max": [
        0.9989445209503174,
        0.8646755218505859
      ],
      "min": [
        0.1882222443819046,
        0.29472947120666504
      ],
      "type": "VEC2"
    },
    {
      "bufferView": 1,
      "byteOffset": 5379328,
      "componentType": 5126,
      "count": 2137,
      "max": [
        0.9989445209503174,
        0.8646755218505859
      ],
      "min": [
        0.1882222443819046,
        0.29472947120666504
      ],
      "type": "VEC2"
    },
    {
      "bufferView": 1,
      "byteOffset": 5396424,
      "componentType": 5126,
      "count": 2137,
      "max": [
        0.9989445209503174,
        0.8646755218505859
      ],
      "min": [
        0.1882222443819046,
        0.29472947120666504
      ],
      "type": "VEC2"
    },
    {
      "bufferView": 0,
      "byteOffset": 1277580,
      "componentType": 5125,
      "count": 10611,
      "type": "SCALAR"
    }
  ],
  "asset": {
    "extras": {
      "author": "id_r_mcgregor (https://sketchfab.com/ID_R_McGregor)",
      "license": "CC-BY-4.0 (http://creativecommons.org/licenses/by/4.0/)",
      "source": "https://sketchfab.com/3d-models/scan-9-snow-ramp-b31dd8df59894e998bd9eb8bd72c4ee8",
      "title": "Scan #9 : Snow Ramp"
    },
    "generator": "Sketchfab-12.67.0",
    "version": "2.0"
  },
  "bufferViews": [
    {
      "buffer": 0,
      "byteLength": 1320024,
      "name": "floatBufferViews",
      "target": 34963
    },
    {
      "buffer": 0,
      "byteLength": 5413520,
      "byteOffset": 1320024,
      "byteStride": 8,
      "name": "floatBufferViews",
      "target": 34962
    },
    {
      "buffer": 0,
      "byteLength": 1624056,
      "byteOffset": 6733544,
      "byteStride": 12,
      "name": "floatBufferViews",
      "target": 34962
    }
  ],
  "buffers": [
    {
      "byteLength": 8357600,
      "uri": "scene.bin"
    }
  ],
  "images": [
    {
      "uri": "textures/main_emissive.jpeg"
    }
  ],
  "materials": [
    {
      "doubleSided": true,
      "emissiveFactor": [
        1.0,
        1.0,
        1.0
      ],
      "emissiveTexture": {
        "index": 0
      },
      "name": "main",
      "pbrMetallicRoughness": {
        "baseColorFactor": [
          0.0,
          0.0,
          0.0,
          1.0
        ],
        "metallicFactor": 0.0,
        "roughnessFactor": 0.6
      }
    }
  ],
  "meshes": [
    {
      "name": "mesh_main_0",
      "primitives": [
        {
          "attributes": {
            "NORMAL": 1,
            "POSITION": 0,
            "TEXCOORD_0": 2,
            "TEXCOORD_1": 3,
            "TEXCOORD_2": 4,
            "TEXCOORD_3": 5,
            "TEXCOORD_4": 6,
            "TEXCOORD_5": 7,
            "TEXCOORD_6": 8,
            "TEXCOORD_7": 9,
            "TEXCOORD_8": 10,
            "TEXCOORD_9": 11
          },
          "indices": 12,
          "material": 0,
          "mode": 4
        }
      ]
    },
    {
      "name": "mesh_main_0",
      "primitives": [
        {
          "attributes": {
            "NORMAL": 14,
            "POSITION": 13,
            "TEXCOORD_0": 15,
            "TEXCOORD_1": 16,
            "TEXCOORD_2": 17,
            "TEXCOORD_3": 18,
            "TEXCOORD_4": 19,
            "TEXCOORD_5": 20,
            "TEXCOORD_6": 21,
            "TEXCOORD_7": 22,
            "TEXCOORD_8": 23,
            "TEXCOORD_9": 24
          },
          "indices": 25,
          "material": 0,
          "mode": 4
        }
      ]
    }
  ],
  "nodes": [
    {
      "children": [
        1
      ],
      "matrix": [
        1.0,
        0.0,
        0.0,
        0.0,
        0.0,
        2.220446049250313e-16,
        -1.0,
        0.0,
        0.0,
        1.0,
        2.220446049250313e-16,
        0.0,
        0.0,
        0.0,
        0.0,
        1.0
      ],
      "name": "Sketchfab_model"
    },
    {
      "children": [
        2
      ],
      "matrix": [
        1.0,
        0.0,
        0.0,
        0.0,
        0.0,
        0.0,
        1.0,
        0.0,
        0.0,
        -1.0,
        0.0,
        0.0,
        0.0,
        0.0,
        0.0,
        1.0
      ],
      "name": "dea4471e2e68418b90b9261f302afe68.fbx"
    },
    {
      "children": [
        3
      ],
      "name": "RootNode"
    },
    {
      "children": [
        4,
        5
      ],
      "name": "mesh"
    },
    {
      "mesh": 0,
      "name": "mesh_main_0"
    },
    {
      "mesh": 1,
      "name": "mesh_main_0"
    }
  ],
  "samplers": [
    {
      "magFilter": 9729,
      "minFilter": 9987,
      "wrapS": 10497,
      "wrapT": 10497
    }
  ],
  "scene": 0,
  "scenes": [
    {
      "name": "Sketchfab_Scene",
      "nodes": [
        0
      ]
    }
  ],
  "textures": [
    {
      "sampler": 0,
      "source": 0
    }
  ]
}
