{
  "accessors": [
    {
      "bufferView": 2,
      "componentType": 5126,
      "count": 7518,
      "max": [
        1.2500900030136108,
        3.0119400024414063,
        1.5399999618530273
      ],
      "min": [
        -12.196100234985352,
        -6.064030170440674,
        -1.5733599662780762
      ],
      "type": "VEC3"
    },
    {
      "bufferView": 2,
      "byteOffset": 90216,
      "componentType": 5126,
      "count": 7518,
      "max": [
        1.0,
        1.0,
        0.9999997019767761
      ],
      "min": [
        -1.0,
        -0.9999997019767761,
        -0.9855570197105408
      ],
      "type": "VEC3"
    },
    {
      "bufferView": 1,
      "componentType": 5126,
      "count": 7518,
      "max": [
        0.9916539788246155,
        0.9919149875640869
      ],
      "min": [
        0.008160999976098537,
        0.009909000247716904
      ],
      "type": "VEC2"
    },
    {
      "bufferView": 0,
      "componentType": 5125,
      "count": 37032,
      "type": "SCALAR"
    },
    {
      "bufferView": 2,
      "byteOffset": 180432,
      "componentType": 5126,
      "count": 11571,
      "max": [
        1.2500900030136108,
        3.4200000762939453,
        3.085520029067993
      ],
      "min": [
        -12.196100234985352,
        -6.064030170440674,
        -1.58010995388031
      ],
      "type": "VEC3"
    },
    {
      "bufferView": 2,
      "byteOffset": 319284,
      "componentType": 5126,
      "count": 11571,
      "max": [
        1.0,
        1.0,
        1.0
      ],
      "min": [
        -1.0,
        -0.9999994039535522,
        -0.9993717670440674
      ],
      "type": "VEC3"
    },
    {
      "bufferView": 1,
      "byteOffset": 60144,
      "componentType": 5126,
      "count": 11571,
      "max": [
        0.9916260242462158,
        0.9918460249900818
      ],
      "min": [
        0.008085000328719616,
        0.008352999575436115
      ],
      "type": "VEC2"
    },
    {
      "bufferView": 0,
      "byteOffset": 148128,
      "componentType": 5125,
      "count": 57870,
      "type": "SCALAR"
    },
    {
      "bufferView": 2,
      "byteOffset": 458136,
      "componentType": 5126,
      "count": 3,
      "max": [
        -7.086130142211914,
        -4.000410079956055,
        -1.5395100116729736
      ],
      "min": [
        -7.129220008850098,
        -4.081009864807129,
        -1.5520399808883667
      ],
      "type": "VEC3"
    },
    {
      "bufferView": 2,
      "byteOffset": 458172,
      "componentType": 5126,
      "count": 3,
      "max": [
        -0.39158424735069275,
        -0.06667850911617279,
        0.9177231192588806
      ],
      "min": [
        -0.39158424735069275,
        -0.06667850911617279,
        0.9177231192588806
      ],
      "type": "VEC3"
    },
    {
      "bufferView": 1,
      "byteOffset": 152712,
      "componentType": 5126,
      "count": 3,
      "max": [
        0.01705400086939335,
        0.9873740077018738
      ],
      "min": [
        0.014685000292956829,
        0.9430310130119324
      ],
      "type": "VEC2"
    },
    {
      "bufferView": 0,
      "byteOffset": 379608,
      "componentType": 5125,
      "count": 3,
      "type": "SCALAR"
    },
    {
      "bufferView": 2,
      "byteOffset": 458208,
      "componentType": 5126,
      "count": 9273,
      "max": [
        1.2500900030136108,
        3.522480010986328,
        2.5682599544525146
      ],
      "min": [
        -12.196100234985352,
        -6.064030170440674,
        -1.5598599910736084
      ],
      "type": "VEC3"
    },
    {
      "bufferView": 2,
      "byteOffset": 569484,
      "componentType": 5126,
      "count": 9273,
      "max": [
        1.0,
        0.9997638463973999,
        1.0
      ],
      "min": [
        -1.0,
        -1.0,
        -0.9998229742050171
      ],
      "type": "VEC3"
    },
    {
      "bufferView": 1,
      "byteOffset": 152736,
      "componentType": 5126,
      "count": 9273,
      "max": [
        0.9919430017471313,
        0.9919419884681702
      ],
      "min": [
        0.008066999725997448,
        0.008855000138282776
      ],
      "type": "VEC2"
    },
    {
      "bufferView": 0,
      "byteOffset": 379620,
      "componentType": 5125,
      "count": 44880,
      "type": "SCALAR"
    },
    {
      "bufferView": 2,
      "byteOffset": 680760,
      "componentType": 5126,
      "count": 9367,
      "max": [
        1.250100016593933,
        2.961560010910034,
        3.08528995513916
      ],
      "min": [
        -12.196100234985352,
        -6.064030170440674,
        -1.5961400270462036
      ],
      "type": "VEC3"
    },
    {
      "bufferView": 2,
      "byteOffset": 793164,
      "componentType": 5126,
      "count": 9367,
      "max": [
        1.0,
        1.0,
        1.0
      ],
      "min": [
        -1.0,
        -1.0,
        -0.9999154210090637
      ],
      "type": "VEC3"
    },
    {
      "bufferView": 1,
      "byteOffset": 226920,
      "componentType": 5126,
      "count": 9367,
      "max": [
        0.9907940030097961,
        0.9919180274009705
      ],
      "min": [
        0.008100000210106373,
        0.00954699981957674
      ],
      "type": "VEC2"
    },
    {
      "bufferView": 0,
      "byteOffset": 559140,
      "componentType": 5125,
      "count": 42456,
      "type": "SCALAR"
    },
    {
      "bufferView": 2,
      "byteOffset": 905568,
      "componentType": 5126,
      "count": 10195,
      "max": [
        1.2500900030136108,
        3.3440699577331543,
        2.7799999713897705
      ],
      "min": [
        -12.196100234985352,
        -6.064030170440674,
        -1.5906200408935547
      ],
      "type": "VEC3"
    },
    {
      "bufferView": 2,
      "byteOffset": 1027908,
      "componentType": 5126,
      "count": 10195,
      "max": [
        1.0,
        1.0,
        1.0
      ],
      "min": [
        -1.0,
        -1.0,
        -1.0
      ],
      "type": "VEC3"
    },
    {
      "bufferView": 1,
      "byteOffset": 301856,
      "componentType": 5126,
      "count": 10195,
      "max": [
        0.9915760159492493,
        0.9919139742851257
      ],
      "min": [
        0.008073999546468258,
        0.008077999576926231
      ],
      "type": "VEC2"
    },
    {
      "bufferView": 0,
      "byteOffset": 728964,
      "componentType": 5125,
      "count": 44646,
      "type": "SCALAR"
    },
    {
      "bufferView": 2,
      "byteOffset": 1150248,
      "componentType": 5126,
      "count": 12878,
      "max": [
        1.2502800226211548,
        3.522599935531616,
        2.7738699913024902
      ],
      "min": [
        -12.196100234985352,
        -6.064030170440674,
        -1.5855000019073486
      ],
      "type": "VEC3"
    },
    {
      "bufferView": 2,
      "byteOffset": 1304784,
      "componentType": 5126,
      "count": 12878,
      "max": [
        1.0,
        1.0,
        1.0
      ],
      "min": [
        -1.0,
        -1.0,
        -1.0
      ],
      "type": "VEC3"
    },
    {
      "bufferView": 1,
      "byteOffset": 383416,
      "componentType": 5126,
      "count": 12878,
      "max": [
        0.991523027420044,
        0.991910994052887
      ],
      "min": [
        0.008175999857485294,
        0.008301000110805035
      ],
      "type": "VEC2"
    },
    {
      "bufferView": 0,
      "byteOffset": 907548,
      "componentType": 5125,
      "count": 49704,
      "type": "SCALAR"
    },
    {
      "bufferView": 2,
      "byteOffset": 1459320,
      "componentType": 5126,
      "count": 1158,
      "max": [
        0.9399999976158142,
        3.4200000762939453,
        2.5
      ],
      "min": [
        -11.925800323486328,
        -5.059999942779541,
        -1.5800000429153442
      ],
      "type": "VEC3"
    },
    {
      "bufferView": 2,
      "byteOffset": 1473216,
      "componentType": 5126,
      "count": 1158,
      "max": [
        1.0,
        1.0,
        1.0
      ],
      "min": [
        -1.0,
        -1.0,
        -1.0
      ],
      "type": "VEC3"
    },
    {
      "bufferView": 1,
      "byteOffset": 486440,
      "componentType": 5126,
      "count": 1158,
      "max": [
        0.9882810115814209,
        0.9901949763298035
      ],
      "min": [
        0.009774000383913517,
        0.00976600032299757
      ],
      "type": "VEC2"
    },
    {
      "bufferView": 0,
      "byteOffset": 1106364,
      "componentType": 5125,
      "count": 1743,
      "type": "SCALAR"
    },
    {
      "bufferView": 2,
      "byteOffset": 1487112,
      "componentType": 5126,
      "count": 375,
      "max": [
        1.0144399404525757,
        2.820539951324463,
        1.7000000476837158
      ],
      "min": [
        -11.940400123596191,
        -4.659999847412109,
        -1.5399999618530273
      ],
      "type": "VEC3"
    },
    {
      "bufferView": 2,
      "byteOffset": 1491612,
      "componentType": 5126,
      "count": 375,
      "max": [
        0.9271873831748962,
        1.0,
        0.9995397925376892
      ],
      "min": [
        -0.9749189615249634,
        -0.9950166940689087,
        -1.0
      ],
      "type": "VEC3"
    },
    {
      "bufferView": 1,
      "byteOffset": 495704,
      "componentType": 5126,
      "count": 375,
      "max": [
        0.984220027923584,
        0.9882760047912598
      ],
      "min": [
        0.011757999658584595,
        0.011739999987185001
      ],
      "type": "VEC2"
    },
    {
      "bufferView": 0,
      "byteOffset": 1113336,
      "componentType": 5125,
      "count": 459,
      "type": "SCALAR"
    },
    {
      "bufferView": 2,
      "byteOffset": 1496112,
      "componentType": 5126,
      "count": 410,
      "max": [
        1.1799999475479126,
        3.522670030593872,
        2.140000104904175
      ],
      "min": [
        -12.038900375366211,
        -5.179999828338623,
        -1.5899900197982788
      ],
      "type": "VEC3"
    },
    {
      "bufferView": 2,
      "byteOffset": 1501032,
      "componentType": 5126,
      "count": 410,
      "max": [
        0.9999999403953552,
        0.9659420251846313,
        0.9969547390937805
      ],
      "min": [
        -1.0,
        -1.0,
        -1.0
      ],
      "type": "VEC3"
    },
    {
      "bufferView": 1,
      "byteOffset": 498704,
      "componentType": 5126,
      "count": 410,
      "max": [
        0.984375,
        0.9881269931793213
      ],
      "min": [
        0.011750999838113785,
        0.011788999661803246
      ],
      "type": "VEC2"
    },
    {
      "bufferView": 0,
      "byteOffset": 1115172,
      "componentType": 5125,
      "count": 549,
      "type": "SCALAR"
    },
    {
      "bufferView": 2,
      "byteOffset": 1505952,
      "componentType": 5126,
      "count": 448,
      "max": [
        -1.0199999809265137,
        3.0999999046325684,
        2.6927099227905273
      ],
      "min": [
        -11.899999618530273,
        -4.659999847412109,
        -1.5899900197982788
      ],
      "type": "VEC3"
    },
    {
      "bufferView": 2,
      "byteOffset": 1511328,
      "componentType": 5126,
      "count": 448,
      "max": [
        0.9324020743370056,
        0.9999999403953552,
        0.9853121042251587
      ],
      "min": [
        -0.9999967217445374,
        -0.9999999403953552,
        -1.0
      ],
      "type": "VEC3"
    },
    {
      "bufferView": 1,
      "byteOffset": 501984,
      "componentType": 5126,
      "count": 448,
      "max": [
        0.9836369752883911,
        0.9882699847221375
      ],
      "min": [
        0.014121999964118004,
        0.015761999413371086
      ],
      "type": "VEC2"
    },
    {
      "bufferView": 0,
      "byteOffset": 1117368,
      "componentType": 5125,
      "count": 522,
      "type": "SCALAR"
    }
  ],
  "asset": {
    "extras": {
      "author": "alban (https://sketchfab.com/alban)",
      "license": "CC-BY-NC-SA-4.0 (http://creativecommons.org/licenses/by-nc-sa/4.0/)",
      "source": "https://sketchfab.com/3d-models/day-34-one-love-under-the-snow-198ea92846af4238ad7d5f9cd9e6c399",
      "title": "Day 34: One Love under the snow"
    },
    "generator": "Sketchfab-12.64.0",
    "version": "2.0"
  },
  "bufferViews": [
    {
      "buffer": 0,
      "byteLength": 1119456,
      "name": "floatBufferViews",
      "target": 34963
    },
    {
      "buffer": 0,
      "byteLength": 505568,
      "byteOffset": 1119456,
      "byteStride": 8,
      "name": "floatBufferViews",
      "target": 34962
    },
    {
      "buffer": 0,
      "byteLength": 1516704,
      "byteOffset": 1625024,
      "byteStride": 12,
      "name": "floatBufferViews",
      "target": 34962
    }
  ],
  "buffers": [
    {
      "byteLength": 3141728,
      "uri": "scene.bin"
    }
  ],
  "extensionsUsed": [
    "KHR_materials_unlit"
  ],
  "images": [
    {
      "uri": "textures/cropped_textured_mesh_0_baseColor.jpeg"
    },
    {
      "uri": "textures/cropped_textured_mesh_1_baseColor.jpeg"
    },
    {
      "uri": "textures/cropped_textured_mesh_10_baseColor.jpeg"
    },
    {
      "uri": "textures/cropped_textured_mesh_2_baseColor.jpeg"
    },
    {
      "uri": "textures/cropped_textured_mesh_3_baseColor.jpeg"
    },
    {
      "uri": "textures/cropped_textured_mesh_4_baseColor.jpeg"
    },
    {
      "uri": "textures/cropped_textured_mesh_5_baseColor.jpeg"
    },
    {
      "uri": "textures/cropped_textured_mesh_6_baseColor.jpeg"
    },
    {
      "uri": "textures/cropped_textured_mesh_7_baseColor.jpeg"
    },
    {
      "uri": "textures/cropped_textured_mesh_8_baseColor.jpeg"
    },
    {
      "uri": "textures/cropped_textured_mesh_9_baseColor.jpeg"
    }
  ],
  "materials": [
    {
      "doubleSided": true,
      "extensions": {
        "KHR_materials_unlit": {}
      },
      "name": "cropped_textured_mesh_0",
      "pbrMetallicRoughness": {
        "baseColorTexture": {
          "index": 0
        },
        "metallicFactor": 0.0
      }
    },
    {
      "doubleSided": true,
      "extensions": {
        "KHR_materials_unlit": {}
      },
      "name": "cropped_textured_mesh_1",
      "pbrMetallicRoughness": {
        "baseColorTexture": {
          "index": 1
        },
        "metallicFactor": 0.0
      }
    },
    {
      "doubleSided": true,
      "extensions": {
        "KHR_materials_unlit": {}
      },
      "name": "cropped_textured_mesh_10",
      "pbrMetallicRoughness": {
        "baseColorTexture": {
          "index": 2
        },
        "metallicFactor": 0.0
      }
    },
    {
      "doubleSided": true,
      "extensions": {
        "KHR_materials_unlit": {}
      },
      "name": "cropped_textured_mesh_2",
      "pbrMetallicRoughness": {
        "baseColorTexture": {
          "index": 3
        },
        "metallicFactor": 0.0
      }
    },
    {
      "doubleSided": true,
      "extensions": {
        "KHR_materials_unlit": {}
      },
      "name": "cropped_textured_mesh_3",
      "pbrMetallicRoughness": {
        "baseColorTexture": {
          "index": 4
        },
        "metallicFactor": 0.0
      }
    },
    {
      "doubleSided": true,
      "extensions": {
        "KHR_materials_unlit": {}
      },
      "name": "cropped_textured_mesh_4",
      "pbrMetallicRoughness": {
        "baseColorTexture": {
          "index": 5
        },
        "metallicFactor": 0.0
      }
    },
    {
      "doubleSided": true,
      "extensions": {
        "KHR_materials_unlit": {}
      },
      "name": "cropped_textured_mesh_5",
      "pbrMetallicRoughness": {
        "baseColorTexture": {
          "index": 6
        },
        "metallicFactor": 0.0
      }
    },
    {
      "doubleSided": true,
      "extensions": {
        "KHR_materials_unlit": {}
      },
      "name": "cropped_textured_mesh_6",
      "pbrMetallicRoughness": {
        "baseColorTexture": {
          "index": 7
        },
        "metallicFactor": 0.0
      }
    },
    {
      "doubleSided": true,
      "extensions": {
        "KHR_materials_unlit": {}
      },
      "name": "cropped_textured_mesh_7",
      "pbrMetallicRoughness": {
        "baseColorTexture": {
          "index": 8
        },
        "metallicFactor": 0.0
      }
    },
    {
      "doubleSided": true,
      "extensions": {
        "KHR_materials_unlit": {}
      },
      "name": "cropped_textured_mesh_8",
      "pbrMetallicRoughness": {
        "baseColorTexture": {
          "index": 9
        },
        "metallicFactor": 0.0
      }
    },
    {
      "doubleSided": true,
      "extensions": {
        "KHR_materials_unlit": {}
      },
      "name": "cropped_textured_mesh_9",
      "pbrMetallicRoughness": {
        "baseColorTexture": {
          "index": 10
        },
        "metallicFactor": 0.0
      }
    }
  ],
  "meshes": [
    {
      "name": "Object_0",
      "primitives": [
        {
          "attributes": {
            "NORMAL": 1,
            "POSITION": 0,
            "TEXCOORD_0": 2
          },
          "indices": 3,
          "material": 0,
          "mode": 4
        }
      ]
    },
    {
      "name": "Object_1",
      "primitives": [
        {
          "attributes": {
            "NORMAL": 5,
            "POSITION": 4,
            "TEXCOORD_0": 6
          },
          "indices": 7,
          "material": 1,
          "mode": 4
        }
      ]
    },
    {
      "name": "Object_2",
      "primitives": [
        {
          "attributes": {
            "NORMAL": 9,
            "POSITION": 8,
            "TEXCOORD_0": 10
          },
          "indices": 11,
          "material": 2,
          "mode": 4
        }
      ]
    },
    {
      "name": "Object_3",
      "primitives": [
        {
          "attributes": {
            "NORMAL": 13,
            "POSITION": 12,
            "TEXCOORD_0": 14
          },
          "indices": 15,
          "material": 3,
          "mode": 4
        }
      ]
    },
    {
      "name": "Object_4",
      "primitives": [
        {
          "attributes": {
            "NORMAL": 17,
            "POSITION": 16,
            "TEXCOORD_0": 18
          },
          "indices": 19,
          "material": 4,
          "mode": 4
        }
      ]
    },
    {
      "name": "Object_5",
      "primitives": [
        {
          "attributes": {
            "NORMAL": 21,
            "POSITION": 20,
            "TEXCOORD_0": 22
          },
          "indices": 23,
          "material": 5,
          "mode": 4
        }
      ]
    },
    {
      "name": "Object_6",
      "primitives": [
        {
          "attributes": {
            "NORMAL": 25,
            "POSITION": 24,
            "TEXCOORD_0": 26
          },
          "indices": 27,
          "material": 6,
          "mode": 4
        }
      ]
    },
    {
      "name": "Object_7",
      "primitives": [
        {
          "attributes": {
            "NORMAL": 29,
            "POSITION": 28,
            "TEXCOORD_0": 30
          },
          "indices": 31,
          "material": 7,
          "mode": 4
        }
      ]
    },
    {
      "name": "Object_8",
      "primitives": [
        {
          "attributes": {
            "NORMAL": 33,
            "POSITION": 32,
            "TEXCOORD_0": 34
          },
          "indices": 35,
          "material": 8,
          "mode": 4
        }
      ]
    },
    {
      "name": "Object_9",
      "primitives": [
        {
          "attributes": {
            "NORMAL": 37,
            "POSITION": 36,
            "TEXCOORD_0": 38
          },
          "indices": 39,
          "material": 9,
          "mode": 4
        }
      ]
    },
    {
      "name": "Object_10",
      "primitives": [
        {
          "attributes": {
            "NORMAL": 41,
            "POSITION": 40,
            "TEXCOORD_0": 42
          },
          "indices": 43,
          "material": 10,
          "mode": 4
        }
      ]
    }
  ],
  "nodes": [
    {
      "children": [
        1
      ],
      "matrix": [
        0.9997738599777222,
        -0.021261028945446014,
        0.0004438913601916236,
        0.0,
        4.607859233063394e-19,
        -0.020873621106147544,
        -0.999782145023346,
        0.0,
        0.021265661343932152,
        0.9995560050010681,
        -0.020868901163339393,
        0.0,
        -0.01707393489778042,
        -0.14255253970623016,
        0.018247056752443282,
        1.0
      ],
      "name": "Sketchfab_model"
    },
    {
      "children": [
        2,
        3,
        4,
        5,
        6,
        7,
        8,
        9,
        10,
        11,
        12
      ],
      "name": "cropped_textured_mesh.obj.cleaner.materialmerger.gles"
    },
    {
      "mesh": 0,
      "name": "Object_2"
    },
    {
      "mesh": 1,
      "name": "Object_3"
    },
    {
      "mesh": 2,
      "name": "Object_4"
    },
    {
      "mesh": 3,
      "name": "Object_5"
    },
    {
      "mesh": 4,
      "name": "Object_6"
    },
    {
      "mesh": 5,
      "name": "Object_7"
    },
    {
      "mesh": 6,
      "name": "Object_8"
    },
    {
      "mesh": 7,
      "name": "Object_9"
    },
    {
      "mesh": 8,
      "name": "Object_10"
    },
    {
      "mesh": 9,
      "name": "Object_11"
    },
    {
      "mesh": 10,
      "name": "Object_12"
    }
  ],
  "samplers": [
    {
      "magFilter": 9729,
      "minFilter": 9987,
      "wrapS": 10497,
      "wrapT": 10497
    }
  ],
  "scene": 0,
  "scenes": [
    {
      "name": "Sketchfab_Scene",
      "nodes": [
        0
      ]
    }
  ],
  "textures": [
    {
      "sampler": 0,
      "source": 0
    },
    {
      "sampler": 0,
      "source": 1
    },
    {
      "sampler": 0,
      "source": 2
    },
    {
      "sampler": 0,
      "source": 3
    },
    {
      "sampler": 0,
      "source": 4
    },
    {
      "sampler": 0,
      "source": 5
    },
    {
      "sampler": 0,
      "source": 6
    },
    {
      "sampler": 0,
      "source": 7
    },
    {
      "sampler": 0,
      "source": 8
    },
    {
      "sampler": 0,
      "source": 9
    },
    {
      "sampler": 0,
      "source": 10
    }
  ]
}
