{
  "accessors": [
    {
      "bufferView": 2,
      "componentType": 5126,
      "count": 23011,
      "max": [
        992.3969116210938,
        1091.8751220703125,
        1025.2149658203125
      ],
      "min": [
        -1021.162353515625,
        -249.65357971191406,
        -1099.2801513671875
      ],
      "type": "VEC3"
    },
    {
      "bufferView": 2,
      "byteOffset": 276132,
      "componentType": 5126,
      "count": 23011,
      "max": [
        1.0,
        1.0,
        1.0
      ],
      "min": [
        -1.0,
        -1.0,
        -1.0
      ],
      "type": "VEC3"
    },
    {
      "bufferView": 1,
      "componentType": 5126,
      "count": 23011,
      "max": [
        2.08681058883667,
        1.0
      ],
      "min": [
        0.125,
        0.0
      ],
      "type": "VEC2"
    },
    {
      "bufferView": 0,
      "componentType": 5125,
      "count": 35652,
      "type": "SCALAR"
    },
    {
      "bufferView": 2,
      "byteOffset": 552264,
      "componentType": 5126,
      "count": 5280,
      "max": [
        874.5118408203125,
        966.5538330078125,
        551.3817749023438
      ],
      "min": [
        -904.7979125976563,
        -92.15382385253906,
        -544.2655639648438
      ],
      "type": "VEC3"
    },
    {
      "bufferView": 2,
      "byteOffset": 615624,
      "componentType": 5126,
      "count": 5280,
      "max": [
        1.0,
        1.0,
        1.0
      ],
      "min": [
        -1.0,
        -1.0,
        -1.0
      ],
      "type": "VEC3"
    },
    {
      "bufferView": 1,
      "byteOffset": 184088,
      "componentType": 5126,
      "count": 5280,
      "max": [
        0.875,
        1.0
      ],
      "min": [
        0.125,
        0.0
      ],
      "type": "VEC2"
    },
    {
      "bufferView": 0,
      "byteOffset": 142608,
      "componentType": 5125,
      "count": 7920,
      "type": "SCALAR"
    },
    {
      "bufferView": 2,
      "byteOffset": 678984,
      "componentType": 5126,
      "count": 5935,
      "max": [
        992.3969116210938,
        1088.6021728515625,
        1132.3270263671875
      ],
      "min": [
        -1021.162353515625,
        -249.65357971191406,
        -1099.2801513671875
      ],
      "type": "VEC3"
    },
    {
      "bufferView": 2,
      "byteOffset": 750204,
      "componentType": 5126,
      "count": 5935,
      "max": [
        1.0,
        1.0,
        1.0
      ],
      "min": [
        -1.0,
        -1.0,
        -1.0
      ],
      "type": "VEC3"
    },
    {
      "bufferView": 1,
      "byteOffset": 226328,
      "componentType": 5126,
      "count": 5935,
      "max": [
        2.237532615661621,
        1.0884511470794678
      ],
      "min": [
        0.125,
        0.0
      ],
      "type": "VEC2"
    },
    {
      "bufferView": 0,
      "byteOffset": 174288,
      "componentType": 5125,
      "count": 12975,
      "type": "SCALAR"
    },
    {
      "bufferView": 2,
      "byteOffset": 821424,
      "componentType": 5126,
      "count": 9940,
      "max": [
        1027.19189453125,
        1290.245361328125,
        1138.8114013671875
      ],
      "min": [
        -1023.9259643554688,
        -260.8714904785156,
        -1111.1326904296875
      ],
      "type": "VEC3"
    },
    {
      "bufferView": 2,
      "byteOffset": 940704,
      "componentType": 5126,
      "count": 9940,
      "max": [
        1.0,
        1.0,
        1.0
      ],
      "min": [
        -1.0,
        -0.9999995231628418,
        -0.9999980926513672
      ],
      "type": "VEC3"
    },
    {
      "bufferView": 1,
      "byteOffset": 273808,
      "componentType": 5126,
      "count": 9940,
      "max": [
        0.0,
        0.0
      ],
      "min": [
        0.0,
        0.0
      ],
      "type": "VEC2"
    },
    {
      "bufferView": 0,
      "byteOffset": 226188,
      "componentType": 5125,
      "count": 57657,
      "type": "SCALAR"
    },
    {
      "bufferView": 2,
      "byteOffset": 1059984,
      "componentType": 5126,
      "count": 137,
      "max": [
        757.4393920898438,
        1263.16552734375,
        -20.72878646850586
      ],
      "min": [
        529.7117919921875,
        885.306396484375,
        -243.07386779785156
      ],
      "type": "VEC3"
    },
    {
      "bufferView": 2,
      "byteOffset": 1061628,
      "componentType": 5126,
      "count": 137,
      "max": [
        1.0,
        1.0,
        0.999992311000824
      ],
      "min": [
        -1.0,
        -0.9345096945762634,
        -0.9999961256980896
      ],
      "type": "VEC3"
    },
    {
      "bufferView": 1,
      "byteOffset": 353328,
      "componentType": 5126,
      "count": 137,
      "max": [
        0.9612991809844971,
        0.9791056513786316
      ],
      "min": [
        0.012013822793960571,
        0.04305630922317505
      ],
      "type": "VEC2"
    },
    {
      "bufferView": 1,
      "byteOffset": 354424,
      "componentType": 5126,
      "count": 137,
      "max": [
        0.9612991809844971,
        0.9791056513786316
      ],
      "min": [
        0.012013822793960571,
        0.04305630922317505
      ],
      "type": "VEC2"
    },
    {
      "bufferView": 0,
      "byteOffset": 456816,
      "componentType": 5125,
      "count": 216,
      "type": "SCALAR"
    },
    {
      "bufferView": 2,
      "byteOffset": 1063272,
      "componentType": 5126,
      "count": 10150,
      "max": [
        901.7550659179688,
        774.7332763671875,
        575.8551025390625
      ],
      "min": [
        -928.3207397460938,
        79.0947494506836,
        -571.3949584960938
      ],
      "type": "VEC3"
    },
    {
      "bufferView": 2,
      "byteOffset": 1185072,
      "componentType": 5126,
      "count": 10150,
      "max": [
        1.0,
        1.0,
        1.0
      ],
      "min": [
        -1.0,
        -1.0,
        -1.0
      ],
      "type": "VEC3"
    },
    {
      "bufferView": 1,
      "byteOffset": 355520,
      "componentType": 5126,
      "count": 10150,
      "max": [
        0.875,
        1.0
      ],
      "min": [
        0.125,
        0.0
      ],
      "type": "VEC2"
    },
    {
      "bufferView": 0,
      "byteOffset": 457680,
      "componentType": 5125,
      "count": 17520,
      "type": "SCALAR"
    },
    {
      "bufferView": 2,
      "byteOffset": 1306872,
      "componentType": 5126,
      "count": 304,
      "max": [
        883.8318481445313,
        767.6563720703125,
        555.0029907226563
      ],
      "min": [
        -910.3975219726563,
        102.4638900756836,
        -551.1618041992188
      ],
      "type": "VEC3"
    },
    {
      "bufferView": 2,
      "byteOffset": 1310520,
      "componentType": 5126,
      "count": 304,
      "max": [
        1.0,
        3.1498390740125615e-07,
        1.0
      ],
      "min": [
        -1.0,
        -3.355442572683387e-07,
        -1.0
      ],
      "type": "VEC3"
    },
    {
      "bufferView": 1,
      "byteOffset": 436720,
      "componentType": 5126,
      "count": 304,
      "max": [
        0.625,
        0.75
      ],
      "min": [
        0.375,
        0.5
      ],
      "type": "VEC2"
    },
    {
      "bufferView": 0,
      "byteOffset": 527760,
      "componentType": 5125,
      "count": 456,
      "type": "SCALAR"
    }
  ],
  "asset": {
    "extras": {
      "author": "joelandy (https://sketchfab.com/joelandy)",
      "license": "CC-BY-4.0 (http://creativecommons.org/licenses/by/4.0/)",
      "source": "https://sketchfab.com/3d-models/winter-house-22e61c8db6a54c59a212e0c1927e0534",
      "title": "Winter House"
    },
    "generator": "Sketchfab-12.64.0",
    "version": "2.0"
  },
  "bufferViews": [
    {
      "buffer": 0,
      "byteLength": 529584,
      "name": "floatBufferViews",
      "target": 34963
    },
    {
      "buffer": 0,
      "byteLength": 439152,
      "byteOffset": 529584,
      "byteStride": 8,
      "name": "floatBufferViews",
      "target": 34962
    },
    {
      "buffer": 0,
      "byteLength": 1314168,
      "byteOffset": 968736,
      "byteStride": 12,
      "name": "floatBufferViews",
      "target": 34962
    }
  ],
  "buffers": [
    {
      "byteLength": 2282904,
      "uri": "scene.bin"
    }
  ],
  "extensionsRequired": [
    "KHR_materials_pbrSpecularGlossiness"
  ],
  "extensionsUsed": [
    "KHR_materials_pbrSpecularGlossiness"
  ],
  "images": [
    {
      "uri": "textures/chimney_diffuse.png"
    }
  ],
  "materials": [
    {
      "doubleSided": true,
      "extensions": {
        "KHR_materials_pbrSpecularGlossiness": {
          "diffuseFactor": [
            0.0550536,
            0.0564653,
            0.0649351,
            1.0
          ],
          "glossinessFactor": 0.4,
          "specularFactor": [
            0.0,
            0.0,
            0.0
          ]
        }
      },
      "name": "testTile"
    },
    {
      "doubleSided": true,
      "extensions": {
        "KHR_materials_pbrSpecularGlossiness": {
          "diffuseFactor": [
            0.345098,
            0.509804,
            0.564706,
            1.0
          ],
          "glossinessFactor": 0.4,
          "specularFactor": [
            0.0,
            0.0,
            0.0
          ]
        }
      },
      "name": "panel"
    },
    {
      "doubleSided": true,
      "extensions": {
        "KHR_materials_pbrSpecularGlossiness": {
          "diffuseFactor": [
            0.815686,
            0.811765,
            0.843137,
            1.0
          ],
          "glossinessFactor": 0.4,
          "specularFactor": [
            0.0,
            0.0,
            0.0
          ]
        }
      },
      "name": "housePaint"
    },
    {
      "doubleSided": true,
      "extensions": {
        "KHR_materials_pbrSpecularGlossiness": {
          "diffuseFactor": [
            1.0,
            1.0,
            1.0,
            1.0
          ],
          "glossinessFactor": 0.4,
          "specularFactor": [
            0.0,
            0.0,
            0.0
          ]
        }
      },
      "name": "snow"
    },
    {
      "doubleSided": true,
      "extensions": {
        "KHR_materials_pbrSpecularGlossiness": {
          "diffuseFactor": [
            1.0,
            1.0,
            1.0,
            1.0
          ],
          "diffuseTexture": {
            "index": 0
          },
          "glossinessFactor": 0.4,
          "specularFactor": [
            0.0,
            0.0,
            0.0
          ]
        }
      },
      "name": "chimney"
    },
    {
      "doubleSided": true,
      "extensions": {
        "KHR_materials_pbrSpecularGlossiness": {
          "diffuseFactor": [
            0.905882,
            0.85098,
            0.901961,
            1.0
          ],
          "glossinessFactor": 0.4,
          "specularFactor": [
            0.0,
            0.0,
            0.0
          ]
        }
      },
      "name": "windowFrame"
    },
    {
      "doubleSided": true,
      "extensions": {
        "KHR_materials_pbrSpecularGlossiness": {
          "diffuseFactor": [
            0.013200000000000005,
            0.09649999999999999,
            0.09649999999999999,
            1.0
          ],
          "glossinessFactor": 0.5200076219512195,
          "specularFactor": [
            0.5443978658536586,
            0.5443978658536586,
            0.5443978658536586
          ]
        }
      },
      "name": "windowGlass"
    }
  ],
  "meshes": [
    {
      "name": "curvePineFast1_testTile_0",
      "primitives": [
        {
          "attributes": {
            "NORMAL": 1,
            "POSITION": 0,
            "TEXCOORD_0": 2
          },
          "indices": 3,
          "material": 0,
          "mode": 4
        }
      ]
    },
    {
      "name": "curvePineFast1_panel_0",
      "primitives": [
        {
          "attributes": {
            "NORMAL": 5,
            "POSITION": 4,
            "TEXCOORD_0": 6
          },
          "indices": 7,
          "material": 1,
          "mode": 4
        }
      ]
    },
    {
      "name": "curvePineFast1_housePaint_0",
      "primitives": [
        {
          "attributes": {
            "NORMAL": 9,
            "POSITION": 8,
            "TEXCOORD_0": 10
          },
          "indices": 11,
          "material": 2,
          "mode": 4
        }
      ]
    },
    {
      "name": "curvePineFast1_snow_0",
      "primitives": [
        {
          "attributes": {
            "NORMAL": 13,
            "POSITION": 12,
            "TEXCOORD_0": 14
          },
          "indices": 15,
          "material": 3,
          "mode": 4
        }
      ]
    },
    {
      "name": "curvePineFast1_chimney_0",
      "primitives": [
        {
          "attributes": {
            "NORMAL": 17,
            "POSITION": 16,
            "TEXCOORD_0": 18,
            "TEXCOORD_1": 19
          },
          "indices": 20,
          "material": 4,
          "mode": 4
        }
      ]
    },
    {
      "name": "curvePineFast1_windowFrame_0",
      "primitives": [
        {
          "attributes": {
            "NORMAL": 22,
            "POSITION": 21,
            "TEXCOORD_0": 23
          },
          "indices": 24,
          "material": 5,
          "mode": 4
        }
      ]
    },
    {
      "name": "curvePineFast1_windowGlass_0",
      "primitives": [
        {
          "attributes": {
            "NORMAL": 26,
            "POSITION": 25,
            "TEXCOORD_0": 27
          },
          "indices": 28,
          "material": 6,
          "mode": 4
        }
      ]
    }
  ],
  "nodes": [
    {
      "children": [
        1
      ],
      "matrix": [
        1.0,
        0.0,
        0.0,
        0.0,
        0.0,
        2.220446049250313e-16,
        -1.0,
        0.0,
        0.0,
        1.0,
        2.220446049250313e-16,
        0.0,
        0.0,
        0.0,
        0.0,
        1.0
      ],
      "name": "Sketchfab_model"
    },
    {
      "children": [
        2
      ],
      "matrix": [
        1.0,
        0.0,
        0.0,
        0.0,
        0.0,
        0.0,
        1.0,
        0.0,
        0.0,
        -1.0,
        0.0,
        0.0,
        0.0,
        0.0,
        0.0,
        1.0
      ],
      "name": "aff1b577d875437c8110ef2e91bf81c7.fbx"
    },
    {
      "children": [
        3
      ],
      "name": "RootNode"
    },
    {
      "children": [
        4,
        5,
        6,
        7,
        8,
        9,
        10
      ],
      "name": "curvePineFast1"
    },
    {
      "mesh": 0,
      "name": "curvePineFast1_testTile_0"
    },
    {
      "mesh": 1,
      "name": "curvePineFast1_panel_0"
    },
    {
      "mesh": 2,
      "name": "curvePineFast1_housePaint_0"
    },
    {
      "mesh": 3,
      "name": "curvePineFast1_snow_0"
    },
    {
      "mesh": 4,
      "name": "curvePineFast1_chimney_0"
    },
    {
      "mesh": 5,
      "name": "curvePineFast1_windowFrame_0"
    },
    {
      "mesh": 6,
      "name": "curvePineFast1_windowGlass_0"
    }
  ],
  "samplers": [
    {
      "magFilter": 9729,
      "minFilter": 9987,
      "wrapS": 10497,
      "wrapT": 10497
    }
  ],
  "scene": 0,
  "scenes": [
    {
      "name": "Sketchfab_Scene",
      "nodes": [
        0
      ]
    }
  ],
  "textures": [
    {
      "sampler": 0,
      "source": 0
    }
  ]
}
